{
    "asset" : {
        "generator" : "Khronos glTF Blender I/O v3.3.36",
        "version" : "2.0"
    },
    "scene" : 0,
    "scenes" : [
        {
            "name" : "Scene",
            "nodes" : [
                0
            ]
        }
    ],
    "nodes" : [
        {
            "mesh" : 0,
            "name" : "stalak",
            "translation" : [
                0,
                0.5783883333206177,
                0
            ]
        }
    ],
    "materials" : [
        {
            "doubleSided" : true,
            "name" : "skare",
            "pbrMetallicRoughness" : {
                "baseColorTexture" : {
                    "index" : 0
                },
                "metallicRoughnessTexture" : {
                    "index" : 1
                }
            }
        }
    ],
    "meshes" : [
        {
            "name" : "Cube",
            "primitives" : [
                {
                    "attributes" : {
                        "POSITION" : 0,
                        "NORMAL" : 1,
                        "TEXCOORD_0" : 2
                    },
                    "indices" : 3,
                    "material" : 0
                }
            ]
        }
    ],
    "textures" : [
        {
            "sampler" : 0,
            "source" : 0
        },
        {
            "sampler" : 0,
            "source" : 1
        }
    ],
    "images" : [
        {
            "bufferView" : 4,
            "mimeType" : "image/png",
            "name" : "skare_hd_Base_Color(sc)"
        },
        {
            "bufferView" : 5,
            "mimeType" : "image/png",
            "name" : "skare_hd_Metallic-skare_hd_Roughness"
        }
    ],
    "accessors" : [
        {
            "bufferView" : 0,
            "componentType" : 5126,
            "count" : 4632,
            "max" : [
                1,
                4.159092426300049,
                1.0286672115325928
            ],
            "min" : [
                -1,
                -0.6130629181861877,
                -1
            ],
            "type" : "VEC3"
        },
        {
            "bufferView" : 1,
            "componentType" : 5126,
            "count" : 4632,
            "type" : "VEC3"
        },
        {
            "bufferView" : 2,
            "componentType" : 5126,
            "count" : 4632,
            "type" : "VEC2"
        },
        {
            "bufferView" : 3,
            "componentType" : 5123,
            "count" : 15756,
            "type" : "SCALAR"
        }
    ],
    "bufferViews" : [
        {
            "buffer" : 0,
            "byteLength" : 55584,
            "byteOffset" : 0,
            "target" : 34962
        },
        {
            "buffer" : 0,
            "byteLength" : 55584,
            "byteOffset" : 55584,
            "target" : 34962
        },
        {
            "buffer" : 0,
            "byteLength" : 37056,
            "byteOffset" : 111168,
            "target" : 34962
        },
        {
            "buffer" : 0,
            "byteLength" : 31512,
            "byteOffset" : 148224,
            "target" : 34963
        },
        {
            "buffer" : 0,
            "byteLength" : 937678,
            "byteOffset" : 179736
        },
        {
            "buffer" : 0,
            "byteLength" : 383443,
            "byteOffset" : 1117416
        }
    ],
    "samplers" : [
        {
            "magFilter" : 9729,
            "minFilter" : 9987
        }
    ],
    "buffers" : [
        {
            "byteLength" : 1500860,
            "uri" : "data:application/octet-stream;base64,"
        }
    ]
}
