<?xml version="1.0" encoding="utf-8"?>
<svg viewBox="0 0 500 155.172" xmlns="http://www.w3.org/2000/svg">
  <path d="M 87.737 46.207 C 78.716 45.38 77.922 44.347 77.922 41.181 L 77.922 40.288 C 77.922 37.121 79.05 36.296 84.489 36.296 L 85.948 36.296 C 92.05 36.296 92.978 37.534 92.978 40.424 L 92.978 42.008 L 103.723 42.008 L 103.723 39.872 C 103.721 30.579 101.398 27.413 85.549 27.413 L 83.494 27.413 C 70.295 27.413 66.976 31.061 66.976 40.148 L 66.976 41.252 C 66.976 50.89 69.364 54.401 83.955 55.434 C 92.908 56.055 93.836 57.566 93.836 60.941 L 93.836 61.768 C 93.836 65.209 92.842 66.312 87.071 66.312 L 85.811 66.312 C 79.047 66.312 77.654 65.348 77.654 61.562 L 77.654 59.841 L 66.845 59.841 L 66.845 62.25 C 66.845 72.988 69.165 75.33 86.873 75.33 L 88.665 75.33 C 100.934 75.33 104.914 71.956 104.914 61.356 L 104.914 60.047 C 104.914 50.478 102.329 47.585 87.737 46.21 L 87.737 46.207 Z" fill="#222222" style=""/>
  <path d="M 108.361 37.329 L 120.697 37.329 L 120.697 74.777 L 132.302 74.777 L 132.302 37.329 L 144.572 37.329 L 144.572 27.965 L 108.361 27.965 L 108.361 37.329 Z" fill="#222222" style=""/>
  <path d="M 176.535 57.431 C 176.535 64.589 175.606 65.827 168.973 65.827 L 167.977 65.827 C 161.412 65.827 160.483 64.589 160.483 57.431 L 160.483 27.965 L 148.878 27.965 L 148.878 58.6 C 148.878 71.956 152.062 75.328 167.846 75.328 L 169.107 75.328 C 185.023 75.328 188.14 71.953 188.14 58.6 L 188.14 27.965 L 176.535 27.965 L 176.535 57.431 Z" fill="#222222" style=""/>
  <path d="M 236.296 55.365 L 236.296 46.964 C 236.296 30.854 232.315 27.965 215.138 27.965 L 195.308 27.965 L 195.308 74.777 L 215.138 74.777 C 233.243 74.777 236.296 71.471 236.296 55.361 L 236.296 55.365 Z M 206.914 65.416 L 206.914 37.119 L 214.674 37.119 C 223.096 37.119 224.621 38.839 224.621 47.791 L 224.621 54.331 C 224.621 63.625 223.096 65.416 214.674 65.416 L 206.914 65.416 Z" fill="#222222" style=""/>
  <path d="M 276.017 65.416 L 254.395 65.416 L 254.395 55.226 L 273.963 55.226 L 273.963 46.553 L 254.395 46.553 L 254.395 37.119 L 275.354 37.119 L 275.354 27.965 L 242.857 27.965 L 242.857 74.777 L 276.017 74.777 L 276.017 65.416 Z" fill="#222222" style=""/>
  <path d="M 313.881 27.965 L 314.413 64.242 L 314.08 64.242 L 298.695 27.965 L 281.65 27.965 L 281.65 74.777 L 292.328 74.777 L 291.995 38.291 L 292.328 38.291 L 307.086 72.688 L 324.627 54.479 L 324.627 27.965 L 313.881 27.965 Z" fill="#222222" style=""/>
  <path d="M 329.066 27.965 L 329.066 37.329 L 341.151 37.329 L 350.172 27.965 L 329.066 27.965 Z" fill="#222222" style=""/>
  <path d="M 260.32 118.158 L 259.457 118.158 C 253.156 118.158 251.431 116.643 251.431 107.005 L 251.431 100.189 C 251.431 91.1 252.759 89.104 259.588 89.104 L 260.384 89.104 C 266.486 89.104 267.747 91.377 267.747 95.505 L 267.747 97.02 L 278.956 97.02 L 278.956 94.818 C 278.956 83.458 275.241 79.74 260.452 79.74 L 259.191 79.74 C 243.604 79.74 239.626 84.145 239.626 100.119 L 239.626 107.14 C 239.626 121.556 242.715 126.54 254.3 127.478 L 263.527 117.9 C 262.617 118.074 261.557 118.155 260.32 118.155 L 260.32 118.158 Z" fill="#222222" style=""/>
  <path d="M 285.386 80.295 L 285.386 95.215 L 296.991 83.167 L 296.991 80.295 L 285.386 80.295 Z" fill="#222222" style=""/>
  <path d="M 309.344 83.708 L 325.194 85.057 L 326.784 66.539 L 308.652 81.732 L 309.344 83.708 Z" fill="#222222" style=""/>
  <path d="M 343.862 52.225 L 344.104 52.248 L 341.165 86.418 L 352.218 87.355 L 355.154 53.184 L 366.838 54.179 L 367.572 45.636 L 353.184 44.413 L 343.862 52.225 Z" fill="#222222" style=""/>
  <path d="M 263.631 119.462 L 254.097 127.454 C 255.488 127.683 257.004 127.866 258.678 128.008 L 259.878 128.111 C 273.516 129.27 278.019 126.489 278.943 115.748 L 279.162 113.173 L 271.878 112.555 L 268.128 115.693 C 267.542 118.129 266.164 119.221 263.631 119.462 Z" fill="#222222" style=""/>
  <path d="M 284.991 114.866 C 283.945 127.052 286.713 130.387 301.742 131.668 L 302.939 131.767 C 318.096 133.055 321.328 130.232 322.377 118.046 L 324.778 90.094 L 313.725 89.154 L 311.414 116.04 C 310.854 122.571 309.872 123.627 303.56 123.093 L 302.611 123.012 C 296.36 122.478 295.571 121.274 296.131 114.743 L 298.217 90.477 L 286.221 100.532 L 284.988 114.869 L 284.991 114.866 Z" fill="#222222" style=""/>
  <path d="M 328.145 98.987 L 339.894 99.985 L 336.955 134.156 L 348.008 135.092 L 350.944 100.922 L 362.625 101.917 L 363.362 93.374 L 328.879 90.442 L 328.145 98.987 Z" fill="#222222" style=""/>
  <path d="M 385.291 112.004 C 376.771 110.52 376.092 109.513 376.34 106.626 L 376.411 105.811 C 376.659 102.921 377.795 102.261 382.974 102.699 L 384.364 102.818 C 390.174 103.31 390.96 104.517 390.734 107.157 L 390.609 108.602 L 400.838 109.468 L 401.005 107.52 C 401.733 99.042 399.773 95.965 384.68 94.681 L 382.723 94.513 C 370.153 93.448 366.709 96.506 365.998 104.797 L 365.914 105.802 C 365.158 114.595 367.157 117.994 380.969 120.115 C 389.447 121.406 390.21 122.861 389.946 125.941 L 389.881 126.695 C 389.611 129.836 388.578 130.76 383.083 130.293 L 381.886 130.19 C 375.442 129.643 374.193 128.652 374.489 125.198 L 374.621 123.627 L 364.327 122.755 L 364.138 124.953 C 363.297 134.751 365.325 137.075 382.185 138.511 L 383.891 138.652 C 395.572 139.647 399.625 136.892 400.455 127.216 L 400.558 126.025 C 401.308 117.296 399.071 114.444 385.288 112.007 L 385.291 112.004 Z" fill="#222222" style=""/>
</svg>